<?xml version="1.0" encoding="UTF-8" standalone="no"?>
<svg
   xmlns:dc="http://purl.org/dc/elements/1.1/"
   xmlns:cc="http://creativecommons.org/ns#"
   xmlns:rdf="http://www.w3.org/1999/02/22-rdf-syntax-ns#"
   xmlns:svg="http://www.w3.org/2000/svg"
   xmlns="http://www.w3.org/2000/svg"
   xmlns:sodipodi="http://sodipodi.sourceforge.net/DTD/sodipodi-0.dtd"
   xmlns:inkscape="http://www.inkscape.org/namespaces/inkscape"
   enable-background="new -0.161 -0.355 237 211"
   xml:space="preserve"
   version="1.1"
   y="0px"
   x="0px"
   viewBox="-0.161 -0.355 250 250"
   id="svg150"
   sodipodi:docname="abraflexi-webhook-acceptor.svg"
   width="250"
   height="250"
   inkscape:version="1.0.2 (e86c870879, 2021-01-15)"><defs
     id="defs154" /><sodipodi:namedview
     pagecolor="#ffffff"
     bordercolor="#666666"
     borderopacity="1"
     objecttolerance="10"
     gridtolerance="10"
     guidetolerance="10"
     inkscape:pageopacity="0"
     inkscape:pageshadow="2"
     inkscape:window-width="3840"
     inkscape:window-height="2139"
     id="namedview152"
     showgrid="false"
     inkscape:zoom="3.1635488"
     inkscape:cx="-49.646974"
     inkscape:cy="102.73425"
     inkscape:window-x="1920"
     inkscape:window-y="0"
     inkscape:window-maximized="1"
     inkscape:current-layer="svg150"
     inkscape:document-rotation="0" /><linearGradient
     id="SVGID_1_"
     y2="205"
     gradientUnits="userSpaceOnUse"
     x2="148.69"
     y1="80.375"
     x1="148.69"><stop
       style="stop-color:#CDAD2D"
       offset="0"
       id="stop131" /><stop
       style="stop-color:#917D2E"
       offset="1"
       id="stop133" /></linearGradient><metadata
     id="metadata148"><rdf:RDF><cc:Work><dc:format>image/svg+xml</dc:format><dc:type
           rdf:resource="http://purl.org/dc/dcmitype/StillImage" /><cc:license
           rdf:resource="http://creativecommons.org/publicdomain/zero/1.0/" /><dc:publisher><cc:Agent
             rdf:about="http://openclipart.org/"><dc:title>Openclipart</dc:title></cc:Agent></dc:publisher><dc:title></dc:title><dc:date>2008-06-14T10:49:47</dc:date><dc:description>Email icon.</dc:description><dc:source>https://openclipart.org/detail/17371/email-by-ytknick</dc:source><dc:creator><cc:Agent><dc:title>ytknick</dc:title></cc:Agent></dc:creator><dc:subject><rdf:Bag><rdf:li>email</rdf:li><rdf:li>envelope</rdf:li><rdf:li>icon</rdf:li><rdf:li>letter</rdf:li><rdf:li>mail</rdf:li><rdf:li>postage</rdf:li></rdf:Bag></dc:subject></cc:Work><cc:License
         rdf:about="http://creativecommons.org/publicdomain/zero/1.0/"><cc:permits
           rdf:resource="http://creativecommons.org/ns#Reproduction" /><cc:permits
           rdf:resource="http://creativecommons.org/ns#Distribution" /><cc:permits
           rdf:resource="http://creativecommons.org/ns#DerivativeWorks" /></cc:License></rdf:RDF></metadata><g
     id="g4360"
     transform="matrix(1.8424094,1.3828512,1.3828512,-1.8424094,345.03148,454.3822)"><path
       d="m -98.13612,160.4463 -63.503,-79.343001 3.24,-2.592 63.503,79.343001 z"
       fill="#454545"
       id="path2668" /><path
       d="m -156.95912,77.719299 -5.903,5.184 -3.528,-4.032 5.903,-5.184 z"
       fill="#454545"
       id="path2728" /><g
       id="g2734"
       transform="translate(-229.21112,16.802299)"><path
         d="m 68.724,56.885 c 0,0 19.224,-4.464 23.976,-5.184 4.752,-0.72 30.527,-7.776 28.007,-23.256 C 118.187,12.965 105.947,3.461 89.46,4.685 72.972,5.909 62.173,6.701 55.189,7.205 50.437,7.565 27.398,12.389 27.398,12.389 l 34.991,42.624 6.263,1.944 z"
         fill="#ffffff"
         id="path2730" /><path
         d="m 68.724,56.885 c 0,0 19.224,-4.464 23.976,-5.184 4.752,-0.72 30.527,-7.776 28.007,-23.256 C 118.187,12.965 105.947,3.461 89.46,4.685 72.972,5.909 62.173,6.701 55.189,7.205 50.437,7.565 27.398,12.389 27.398,12.389 l 34.991,42.624 6.263,1.944 z"
         fill-opacity="0"
         stroke="#454545"
         stroke-width="2.501"
         id="path2732" /></g><g
       id="g2740"
       transform="translate(-229.21112,16.802299)"><path
         d="M 66.204,60.485 C 58.933,67.253 43.381,62.357 31.573,49.541 19.766,36.725 16.022,20.885 23.366,14.117 30.637,7.349 46.189,12.245 57.997,25.061 69.804,37.877 73.548,53.717 66.204,60.485 Z"
         fill="#ffffff"
         id="path2736" /><path
         d="M 66.204,60.485 C 58.933,67.253 43.381,62.357 31.573,49.541 19.766,36.725 16.022,20.885 23.366,14.117 30.637,7.349 46.189,12.245 57.997,25.061 69.804,37.877 73.548,53.717 66.204,60.485 Z"
         fill-opacity="0"
         stroke="#454545"
         stroke-width="4.001"
         id="path2738" /></g><path
       d="m -142.12712,56.479299 c 0,0 -6.984,-11.232 -11.736,-17.856 -4.824,-6.624 -10.151,-9.936 -11.735,-10.728 -1.584,-0.792 9.791,-2.88 12.311,-1.8 7.992,3.6 17.928,18.432 18.432,21.96 0.504,3.6 -3.744,11.232 -7.2,8.424 z"
       fill="#cbe4f0"
       id="path2790" /><g
       id="g2802"
       transform="translate(-229.21112,16.802299)"><path
         d="m 61.525,15.269 c 0,0 15.695,7.704 23.327,20.16"
         fill-opacity="0"
         stroke="#7c7c7d"
         stroke-width="1.5"
         stroke-linecap="round"
         stroke-linejoin="round"
         id="path2792" /><path
         d="m 69.876,11.309 c 0,0 15.696,8.136 23.976,21.168"
         fill-opacity="0"
         stroke="#7c7c7d"
         stroke-width="1.5"
         stroke-linecap="round"
         stroke-linejoin="round"
         id="path2794" /><path
         d="m 77.724,8.789 c 0,0 16.2,6.192 22.824,18.864"
         fill-opacity="0"
         stroke="#7c7c7d"
         stroke-width="1.5"
         stroke-linecap="round"
         stroke-linejoin="round"
         id="path2796" /><path
         d="m 99.396,14.477 c 0,0 -15.48,8.352 -20.808,21.312"
         fill-opacity="0"
         stroke="#7c7c7d"
         stroke-width="1.5"
         stroke-linecap="round"
         stroke-linejoin="round"
         id="path2798" /><path
         d="m 86.58,8.645 c 0,0 -14.472,10.368 -16.848,19.512"
         fill-opacity="0"
         stroke="#7c7c7d"
         stroke-width="1.5"
         stroke-linecap="round"
         stroke-linejoin="round"
         id="path2800" /></g></g><g
     id="g3419"
     transform="rotate(-87.52461,85.531222,58.289693)"><g
       id="g4525"
       transform="matrix(0.09752631,0,0,-0.09752631,-90.586255,97.375)"
       style="clip-rule:evenodd;fill-rule:evenodd;image-rendering:optimizeQuality;shape-rendering:geometricPrecision;text-rendering:geometricPrecision"><path
         d="M 1708.68,0 1842.46,231.617 1976.17,0 Z"
         style="fill:#f9ae2d;fill-opacity:1;fill-rule:nonzero;stroke:none"
         id="path22"
         inkscape:connector-curvature="0" /><path
         d="m 1708.68,0 -133.75,231.617 h 267.53 z"
         style="fill:#d28b25;fill-opacity:1;fill-rule:nonzero;stroke:none"
         id="path24"
         inkscape:connector-curvature="0" /><path
         d="m 1574.93,231.617 133.75,231.68 133.78,-231.68 z"
         style="fill:#936327;fill-opacity:1;fill-rule:nonzero;stroke:none"
         id="path26"
         inkscape:connector-curvature="0" /><path
         d="M 1708.68,463.297 H 1441.21 L 1173.65,0 h 267.56 l 267.47,463.297"
         style="fill:#767a7c;fill-opacity:1;fill-rule:nonzero;stroke:none"
         id="path28"
         inkscape:connector-curvature="0" /></g><g
       id="g861"
       transform="matrix(0.09752631,0,0,0.09752631,-90.586255,7.0077063)"
       style="clip-rule:evenodd;fill-rule:evenodd;image-rendering:optimizeQuality;shape-rendering:geometricPrecision;text-rendering:geometricPrecision"><path
         d="M 1708.68,0 1842.46,231.617 1976.17,0 Z"
         style="fill:#f9ae2d;fill-opacity:1;fill-rule:nonzero;stroke:none"
         id="path853"
         inkscape:connector-curvature="0" /><path
         d="m 1708.68,0 -133.75,231.617 h 267.53 z"
         style="fill:#d28b25;fill-opacity:1;fill-rule:nonzero;stroke:none"
         id="path855"
         inkscape:connector-curvature="0" /><path
         d="m 1574.93,231.617 133.75,231.68 133.78,-231.68 z"
         style="fill:#936327;fill-opacity:1;fill-rule:nonzero;stroke:none"
         id="path857"
         inkscape:connector-curvature="0" /><path
         d="M 1708.68,463.297 H 1441.21 L 1173.65,0 h 267.56 l 267.47,463.297"
         style="fill:#767a7c;fill-opacity:1;fill-rule:nonzero;stroke:none"
         id="path859"
         inkscape:connector-curvature="0" /></g><g
       id="g1932"
       transform="matrix(0.05757889,0.26178712,-0.26178712,0.05757889,119.6733,-50.096967)"><g
         id="g1266"><path
           fill="#f9d56e"
           d="m 327.662,188.236 c -13.177,11.485 -19.094,31.139 -1.086,44.646 13.56,9.322 31.356,7.627 41.525,-4.237 9.259,-10.802 11.07,-24.625 3.846,-36.65 -11.107,-18.491 -31.249,-15.122 -44.285,-3.759 z"
           id="path1260" /><g
           id="g1264"><path
             d="m 325.895,186.468 c -12.528,11.27 -17.879,28.713 -6.75,42.855 11.481,14.591 34.012,15.521 47.771,4.071 15.612,-12.993 15.459,-37.372 0.567,-50.656 -12.405,-11.065 -30.175,-5.926 -41.588,3.73 -2.465,2.085 1.09,5.604 3.535,3.535 9.606,-8.127 23.815,-12.346 34.518,-3.729 14.119,11.369 11.921,32.138 -0.567,43.585 -11.797,10.815 -30.803,7.27 -40.7,-4.071 -10.023,-11.485 -3.039,-26.979 6.75,-35.785 2.401,-2.16 -1.147,-5.685 -3.536,-3.535 z"
             id="path1262" /></g></g><g
         id="g1272"><g
           id="g1270"><path
             d="m 336.76,208.891 c -0.104,-1.803 -0.153,-3.784 0.581,-5.482 0.376,-0.869 1.246,-1.826 1.732,-1.883 2.409,-0.283 3.52,3.371 3.847,5.488 0.491,3.179 5.309,1.824 4.822,-1.329 -0.673,-4.354 -3.809,-9.729 -8.954,-9.126 -5.899,0.692 -7.313,7.404 -7.028,12.333 0.185,3.204 5.186,3.222 5,-0.001 z"
             id="path1268" /></g></g><g
         id="g1278"><g
           id="g1276"><path
             d="m 357.519,208.891 c -0.051,-2.44 0.599,-5.239 3.439,-5.127 2.534,0.1 3.243,3.098 3.093,5.127 -0.238,3.218 4.764,3.195 5,0 0.381,-5.156 -2.854,-9.608 -8.093,-10.127 -5.707,-0.565 -8.54,5.306 -8.439,10.127 0.067,3.22 5.067,3.226 5,0 z"
             id="path1274" /></g></g><g
         id="g1286"><path
           fill="#ecc4dd"
           d="m 335.894,220.734 c 8.721,0 15.856,1.412 23.785,-1.412 -3.965,4.943 -5.551,12.709 -14.271,12.004 -3.965,-0.706 -10.307,-6.355 -9.514,-10.592"
           id="path1280" /><g
           id="g1284"><path
             d="m 335.894,223.234 c 8.284,0.083 16.42,1.098 24.45,-1.501 -0.941,-1.224 -1.883,-2.448 -2.824,-3.672 -2.337,3.086 -3.804,7.207 -6.947,9.597 -4.443,3.378 -12.55,-1.556 -12.179,-6.923 0.223,-3.22 -4.778,-3.198 -5,0 -0.463,6.687 7.064,12.932 13.333,13.134 8.178,0.265 11.028,-7.894 15.111,-13.285 1.347,-1.778 -0.871,-4.304 -2.824,-3.672 -7.584,2.455 -15.301,1.4 -23.12,1.323 -3.226,-0.033 -3.223,4.967 0,4.999 z"
             id="path1282" /></g></g><g
         id="g1292"><g
           id="g1290"><path
             d="m 339.962,194.313 c 8.745,-12.899 8.385,-30.578 4.219,-45.013 -3.948,-13.682 -13.266,-27.394 -28.356,-29.328 -15.583,-1.998 -32.798,10.968 -32.178,27.116 0.507,13.198 12.584,27.215 26.6,24.51 16.473,-3.179 21.449,-29.752 8.505,-39.592 -6.83,-5.192 -14.486,-0.503 -20.215,4.193 -2.68,2.198 -5.458,5.379 -5.904,8.945 -0.45,3.59 1.759,6.861 5.342,7.187 3.212,0.292 3.184,-4.711 0,-5 -0.389,-0.035 -0.777,-0.071 -1.166,-0.106 0.72,0.413 1.439,0.826 2.159,1.238 -2.591,-3.626 0.139,-6.112 3.105,-8.729 2.588,-2.283 7.763,-6.059 11.438,-5.021 9.111,2.572 8.671,18.739 4.841,25.018 -4.386,7.19 -12.54,9.1 -19.554,4.794 -6.419,-3.94 -10.199,-11.831 -10.184,-19.207 0.021,-9.8 8.561,-16.195 17.012,-19.146 7.388,-2.579 15.104,-1.225 21.165,3.686 12.5,10.127 16.321,29.422 14.846,44.632 -0.595,6.13 -2.528,12.19 -5.991,17.299 -1.816,2.677 2.518,5.176 4.316,2.524 z"
             id="path1288" /></g></g><g
         id="g1298"><g
           id="g1296"><path
             d="m 365.176,185.145 c 16.276,-22.918 21.79,-62.928 2.638,-85.78 -10.451,-12.471 -28.958,-15.04 -43.965,-10.828 -14.183,3.981 -22.073,18.593 -17.937,32.62 7.104,24.094 44.646,21.83 52.146,-0.89 1.909,-5.783 -0.642,-12.835 -5.399,-16.451 -5.374,-4.083 -12.214,-4.626 -18.649,-3.292 -9.104,1.888 -24.076,16.42 -9.794,22.21 2.99,1.212 4.277,-3.626 1.33,-4.821 -6.566,-2.662 3.016,-9.75 5.97,-11.277 5.059,-2.615 11.818,-2.445 16.776,0.211 6.113,3.276 6.335,10.679 3.101,15.979 -3.291,5.395 -9.851,8.775 -15.81,10.135 -16.407,3.743 -29.933,-10.955 -24.587,-26.84 5.715,-16.979 31.329,-17.3 44.586,-10.306 13.975,7.374 18.521,24.349 18.918,38.999 0.447,16.527 -4.006,34.238 -13.643,47.807 -1.871,2.636 2.468,5.129 4.319,2.524 z"
             id="path1294" /></g></g><g
         id="g1312"><g
           id="g1310"><path
             d="m 324.008,207.329 c 2.42,2.992 6.59,4.214 10.326,3.883 2.389,-0.211 2.41,-3.963 0,-3.75 -2.865,0.254 -5.808,-0.477 -7.674,-2.784 -1.521,-1.881 -4.158,0.789 -2.652,2.651 z"
             id="path1308" /></g></g><g
         id="g1318"><g
           id="g1316"><path
             d="m 367,210.878 c 4.013,0.234 7.709,-3.4 9.619,-6.595 1.243,-2.081 -1.999,-3.966 -3.238,-1.893 -1.241,2.076 -3.729,4.893 -6.381,4.738 -2.417,-0.141 -2.403,3.61 0,3.75 z"
             id="path1314" /></g></g><g
         id="g1324"><g
           id="g1322"><path
             d="m 366.498,204.479 c 1.684,-0.471 2.953,-1.608 4.162,-2.816 1.712,-1.71 -0.939,-4.362 -2.652,-2.651 -0.823,0.823 -1.548,1.583 -2.506,1.851 -2.326,0.649 -1.337,4.267 0.996,3.616 z"
             id="path1320" /></g></g><g
         id="g1330"><g
           id="g1328"><path
             d="m 328.048,201.283 c 0.921,2.161 3.016,3.225 5.286,3.262 2.42,0.04 2.416,-3.711 0,-3.75 -0.131,0 -0.263,-0.004 -0.394,-0.013 -0.595,-0.029 0.317,0.076 -0.246,-0.04 -0.117,-0.027 -0.233,-0.059 -0.349,-0.096 -0.521,-0.156 0.275,0.158 -0.198,-0.093 -0.102,-0.058 -0.2,-0.12 -0.295,-0.188 0.303,0.205 -0.124,-0.155 -0.15,-0.183 0.229,0.242 -0.136,-0.215 -0.147,-0.235 -0.107,-0.176 -0.188,-0.368 -0.269,-0.557 -0.401,-0.941 -1.769,-1.14 -2.565,-0.673 -0.964,0.565 -1.074,1.626 -0.673,2.566 z"
             id="path1326" /></g></g></g></g></svg>
